<svg xmlns="http://www.w3.org/2000/svg" viewBox="0 0 333333 333333" shape-rendering="geometricPrecision" text-rendering="geometricPrecision" image-rendering="optimizeQuality" fill-rule="evenodd" clip-rule="evenodd"><path d="M166667 0c46023 0 87690 18656 117850 48816 30161 30161 48816 71828 48816 117851s-18655 87690-48816 117851c-30160 30160-71828 48816-117850 48816-46023 0-87690-18655-117851-48816S0 212690 0 166667 18655 78977 48816 48816 120644 0 166667 0zm-53246 101382v101715h33900v19279c524-499 819-767 1099-1048 5716-5702 11448-11390 17130-17128 811-818 1620-1150 2772-1146 11847 38 23694 46 35541-23 870-6 1951-455 2571-1067 7385-7284 14689-14652 22056-21955 825-819 1124-1635 1123-2774-28-24696-21-49393-21-74089v-1765H113422zm91712 72349h-14069v-43050h14069v43050zm-38540-43048v42991h-14325v-42991h14325zm-38473 115502v-19048H89538c-39-797-95-1415-95-2034l-3-28558v-21839c3-19037 9-38076 21-57117 0-1036 184-2116 508-3101 2843-8651 5761-17278 8589-25935 367-1121 828-1522 2024-1534h57c47215 37 94429 31 141643 31h1583v2000c0 30887-8 61774 28 92661v60c-11 1256-393 2132-1288 3023-13699 13644-27369 27315-41013 41013-905 909-1792 1289-3082 1280-8311-59-16622 9-24933-65-1592-14-2729 402-3863 1560-5482 5604-11046 11128-16624 16636-530 524-1363 1042-2061 1048-3481 34-6962 46-10444 48h-2089c-3250-2-6498-8-9748-12-163 0-328-58-629-117zM275998 57334c-27980-27980-66635-45286-109331-45286-42697 0-81352 17306-109332 45286s-45286 66635-45286 109332 17306 81352 45286 109332 66635 45286 109332 45286 81352-17306 109331-45286c27980-27980 45286-66635 45286-109332s-17306-81352-45286-109332z" fill-rule="nonzero"/></svg>